<svg xmlns="http://www.w3.org/2000/svg" width="700" height="700" fill="none" viewBox="0 0 700 700"><rect width="700" height="700" fill="#0B0A0E" rx="240"/><path fill="#EBEBEB" d="M373.214 143.777c42.628 3.773 84.236 21.726 118.334 51.058 5.175 4.451 9.971 8.817 10.658 9.701 3.164 4.073 1.755 6.339-14.5 23.332a8816.5 8816.5 0 0 0-25.891 27.18c-7.378 7.795-10.792 10.715-12.528 10.715-2.485 0-3.211-.466-16.808-10.78-22.388-16.985-45.235-25.446-72.523-26.857-26.31-1.36-50.066 5.23-70.989 19.694-8.596 5.943-22.587 20.088-28.375 28.686-26.194 38.921-25.455 92.396 1.812 131.026 9.773 13.846 26.138 27.795 41.815 35.643 22.399 11.213 54.717 14.516 79.737 8.149 11.377-2.896 27.88-10.516 37.244-17.198 3.48-2.483 11.239-9.205 17.242-14.939 8.763-8.368 11.493-10.424 13.841-10.424 2.315 0 8.945 4.814 31.799 23.088 15.881 12.699 29.494 24.257 30.252 25.684 1.206 2.271 1.157 3.007-.387 5.874-2.401 4.459-26.215 27.593-35.608 34.591-49.481 36.865-108.63 49.861-169.123 37.158-38.065-7.993-73.608-27.329-101.818-55.392-28.223-28.075-45.278-59.525-53.686-99.003-2.451-11.506-2.666-14.408-2.709-36.5-.05-25.71.509-30.818 5.514-50.337 11.751-45.822 42.768-87.744 86.439-116.827 38.343-25.535 84.588-37.365 130.258-33.322Z"/></svg>