<svg xmlns="http://www.w3.org/2000/svg" width="300" height="81.387"><path fill="#b81d24" d="M256.09 76.213c4.18.404 8.353.84 12.52 1.291l9.198-22.713 8.744 24.806c4.488.563 8.97 1.151 13.442 1.768l-15.328-43.502L300 .001h-12.987l-.133.184-8.283 20.455L271.327 0h-12.822l13.238 37.564-15.652 38.649zm-9.698-.889V.002h-12.818v74.266c4.278.327 8.552.684 12.818 1.056m-96.278-4.214c3.46 0 6.914.026 10.365.054V43.493h15.398V31.708H160.48v-19.91h17.733V0H147.61v71.12c.833 0 1.666-.01 2.503-.01m-39.795.72c4.269-.152 8.544-.28 12.825-.384V11.798h11.978V.001H98.337v11.797h11.981V71.83zm-98.022 7.944V34.898l15.175 43.063c4.667-.525 9.342-1.018 14.027-1.482V.003H29.202v46.482L12.824.003H0v81.384h.076c4.065-.563 8.14-1.098 12.22-1.613M85.98 11.797V0H55.376v75.201a1100.677 1100.677 0 0 1 30.579-2.21V61.184c-5.916.343-11.82.74-17.71 1.18V43.496h15.397v-11.79H68.245v-19.91H85.98zM203.615 60.62V0h-12.872v71.874c10.238.375 20.439.9 30.604 1.558V61.62c-5.9-.382-11.81-.713-17.732-.999"/></svg>