<svg xmlns="http://www.w3.org/2000/svg" xml:space="preserve" id="Layer_1" x="0" y="0" version="1.1" viewBox="0 0 1840.96 573.96"><style>.st3{fill:#fff}.st4{font-family:&apos;TeXGyreHeros-Medium&apos;}.st5{font-size:62.5495px}.st6{letter-spacing:-3}</style><path d="m100.14 477-18.42-.01c-2.76 0-5-2.24-5-5 0-1.38.56-2.63 1.46-3.53.91-.91 2.16-1.47 3.54-1.47h18.42V21.78H15.33v529.88h342.14V477H100.14zM428.38 384.22h293.69v-6.53c0-18.36-.72-38.41-2.17-60.16s-5.8-41.56-13.05-59.44c-12.57-30.92-33.11-55.81-61.61-74.66-28.52-18.85-61.38-28.27-98.59-28.27-32.86 0-60.77 6.16-83.72 18.48-22.96 12.33-41.56 28.27-55.81 47.85-14.26 19.57-24.65 41.56-31.17 65.96-6.53 24.41-9.79 48.93-9.79 73.57 0 24.65 3.14 48.93 9.43 72.85 6.27 23.92 16.42 45.43 30.44 64.51 14.01 19.1 32.37 34.44 55.09 46.03 22.71 11.6 50.74 17.4 84.09 17.4 34.79 0 65.96-7.61 93.5-22.83 27.55-15.23 48.32-37.33 62.34-66.33 2.9-6.76 5.31-13.28 7.25-19.57 1.93-6.27 3.86-12.8 5.8-19.57l2.9-10.87h-78.29l-2.17 5.79c-1.45 2.9-2.54 5.33-3.26 7.25a61.14 61.14 0 0 1-2.54 5.8c-.97 2.43-1.94 4.48-2.9 6.16-.97 1.7-2.17 3.99-3.62 6.89-8.23 13.05-18.85 22.36-31.9 27.91-13.05 5.56-28.03 8.33-44.94 8.33-17.4 0-32.26-2.9-44.58-8.69-12.32-5.8-22.47-13.65-30.44-23.56-7.98-9.9-14.03-21.26-18.13-34.07-3.12-9.72-5.33-19.8-6.64-30.23h-19.21c-2.76 0-5-2.24-5-5 0-1.38.56-2.63 1.46-3.54.91-.9 2.16-1.46 3.54-1.46zm29.84-100.03c4.83-11.11 11.35-21.02 19.57-29.72 8.21-8.7 18-15.59 29.36-20.66 11.35-5.08 24.28-7.61 38.78-7.61 14.01 0 26.57 2.66 37.69 7.97 11.11 5.32 20.77 12.32 29 21.02 8.21 8.7 14.73 18.61 19.57 29.72 4.82 11.12 7.49 22.47 7.97 34.07H448.8c1.45-12.07 4.58-23.67 9.42-34.79zM944.6 302.31l140.62-136.28H983.74l-135.7 133v28.22c0 2.76-2.24 5-5 5-1.38 0-2.63-.56-3.54-1.47a4.98 4.98 0 0 1-1.46-3.53V21.78h-78.28v529.88h78.28v-148.6l46.4-45.66 122.5 194.26h94.96L944.6 302.31z" class="st3"/><path d="M1395.47 392.19c-7.24-12.56-16.67-22.95-28.26-31.17-11.6-8.21-24.54-14.73-38.79-19.57-14.25-4.82-28.63-8.94-43.13-12.32-7.24-1.93-14.62-3.63-22.1-5.08-7.5-1.45-14.63-3.13-21.39-5.07a154.08 154.08 0 0 1-18.48-3.99c-6.05-1.68-11.72-3.5-17.04-5.43-10.14-4.35-18-9.3-23.55-14.86-5.56-5.55-8.34-12.69-8.34-21.39 0-16.42 7-28.38 21.02-35.88 14.01-7.48 30.2-11.23 48.57-11.23 20.77 0 36.6 3.98 47.48 11.96 10.87 7.97 17.03 20.9 18.48 38.78v8.7h81.19v-6.53c0-41.07-13.05-72-39.15-92.78-26.09-20.77-61.37-31.17-105.83-31.17-20.29 0-39.75 2.54-58.35 7.61-18.61 5.07-34.92 12.69-48.93 22.83-14.02 10.15-25.13 22.72-33.34 37.7-8.23 14.98-12.32 32.62-12.32 52.91 0 18.37 3.37 33.96 10.14 46.76 6.77 12.81 15.7 23.55 26.82 32.25 11.11 8.7 23.92 15.71 38.42 21.02 14.5 5.33 29.47 9.68 44.94 13.05 10.15 2.43 20.3 4.84 30.45 7.25 10.15 2.42 20.29 5.07 30.44 7.97 7.25 1.94 14.01 3.88 20.3 5.8 6.27 1.94 11.71 4.35 16.31 7.25 4.59 2.9 8.21 6.41 10.87 10.51 2.65 4.11 3.99 9.55 3.99 16.31 0 8.7-2.3 15.95-6.89 21.75-4.6 5.8-10.63 10.51-18.12 14.13-7.5 3.63-15.83 6.29-25.01 7.98-9.18 1.7-18.61 2.53-28.27 2.53-26.58 0-46.03-4.22-58.35-12.68-12.32-8.45-20.18-24.52-23.56-48.21v-7.97h-81.18v8.7c.08 1.46.16 2.9.26 4.33.72 10.31 2.03 19.95 3.95 28.94 6.26 29.5 18.99 51.88 38.19 67.12 25.85 20.55 64.39 30.81 115.62 30.81 21.26 0 41.68-2.3 61.25-6.89 19.57-4.58 36.97-11.83 52.19-21.74 15.22-9.9 27.42-22.59 36.61-38.06 9.17-15.46 13.77-34.07 13.77-55.81 0-18.85-3.63-34.55-10.88-47.12zM1791.25 487.87c-4.35 1.45-8.7 2.18-13.05 2.18-14.98 0-22.47-6.76-22.47-20.3V264.61c0-20.77-4.23-38.16-12.68-52.19-8.46-14.01-19.57-25.24-33.35-33.7-13.77-8.45-29.72-14.5-47.84-18.12-18.12-3.63-36.85-5.44-56.18-5.44-17.39 0-34.19 1.45-50.37 4.35-16.2 2.9-31.06 7.73-44.58 14.5-13.54 6.77-25.26 15.7-35.16 26.82-9.91 11.12-17.52 25.13-22.83 42.04-1.94 6.28-3.51 12.93-4.71 19.93-1.22 7.01-1.82 13.9-1.82 20.66v8.7h79.01v-7.97c2.42-21.75 10.03-36.85 22.84-45.31 12.8-8.45 31.28-12.68 55.45-12.68 9.66 0 18.96.72 27.91 2.17 8.93 1.45 16.78 3.99 23.56 7.61 6.76 3.63 12.19 8.46 16.31 14.5 4.09 6.05 6.16 13.41 6.16 22.11v13.77c0 4.84-.49 8.46-1.45 10.87-.98 2.9-2.3 5.56-3.99 7.98-1.7 2.42-4.96 4.83-9.79 7.25-5.32 2.42-12.08 4.34-20.29 5.79-8.22 1.45-17.16 2.9-26.82 4.35a971.19 971.19 0 0 0-29.36 3.27c-9.42 1.21-17.76 2.3-25.01 3.26-18.84 2.9-36.24 7.01-52.19 12.32-15.94 5.32-29.72 12.57-41.32 21.75-11.59 9.18-20.65 20.54-27.18 34.07-6.52 13.53-9.78 30.2-9.78 50.01 0 36.24 11.83 64.4 35.52 84.45 23.67 20.05 55.81 30.08 96.4 30.08 23.2 0 45.42-4.11 66.69-12.32 21.26-8.21 39.87-19.57 55.82-34.07 5.79 11.6 14.49 21.27 26.09 28.99 11.6 7.73 24.88 11.6 39.87 11.6 1.92 0 5.07-.12 9.42-.36 4.35-.25 8.94-.61 13.77-1.09 5.8-.97 10.39-1.93 13.78-2.9 1.45 0 3.13-.47 5.07-1.45 1.93 0 3.63-.72 5.07-2.17l2.9-2.18V485.7l-9.42 2.17zm-113.8-72.48c0 12.08-2.9 22.95-8.7 32.62-5.8 9.67-13.54 17.88-23.2 24.64-9.67 6.77-20.54 11.96-32.62 15.59-12.08 3.62-24.64 5.43-37.69 5.43-20.3 0-36.13-3.37-47.48-10.15-11.36-6.76-17.03-19.32-17.03-37.69 0-14.01 4.22-24.64 12.68-31.89 8.45-7.25 19.21-13.05 32.26-17.4 14.97-3.86 29.47-6.52 43.49-7.97 7.72-.97 15.1-1.93 22.11-2.9 7-.96 13.89-1.93 20.66-2.9 6.27-.97 12.43-2.18 18.48-3.63 2.41-.58 4.75-1.23 7.04-1.96v-22.26c0-2.76 2.24-5 5-5 1.38 0 2.63.56 3.53 1.46.91.91 1.47 2.16 1.47 3.54v60.47z" class="st3"/><text class="st3 st4 st5 st6" transform="translate(1738.892 139.006)">TM</text><path d="m1146.77 434.94-72.22 36-22.7-36z" class="st3"/></svg>