<svg xmlns="http://www.w3.org/2000/svg" width="600" height="600" fill="none" viewBox="0 0 600 600"><rect width="600" height="600" fill="#CBCBCB" rx="130"/><rect width="600" height="600" fill="#fff" fill-opacity=".4" rx="130"/><g clip-path="url(#a)"><path fill="#0ACF83" d="M247.011 459c29.25 0 52.989-23.744 52.989-53v-53h-52.989c-29.25 0-52.99 23.744-52.99 53s23.74 53 52.99 53Z"/><path fill="#A259FF" d="M194.021 300c0-29.256 23.74-53 52.99-53H300v106h-52.989c-29.25 0-52.99-23.744-52.99-53Z"/><path fill="#F24E1E" d="M194.021 194c0-29.256 23.74-53 52.99-53H300v106h-52.989c-29.25 0-52.99-23.744-52.99-53Z"/><path fill="#FF7262" d="M300 141h52.989c29.251 0 52.99 23.744 52.99 53s-23.739 53-52.99 53H300V141Z"/><path fill="#1ABCFE" d="M405.979 300c0 29.256-23.739 53-52.99 53-29.25 0-52.989-23.744-52.989-53s23.739-53 52.989-53c29.251 0 52.99 23.744 52.99 53Z"/></g><defs><clipPath id="a"><path fill="#fff" d="M0 0h212v318H0z" transform="translate(194 141)"/></clipPath></defs></svg>