<svg xmlns="http://www.w3.org/2000/svg" width="600" height="600" fill="none" viewBox="0 0 600 600"><g clip-path="url(#a)"><rect width="600" height="600" fill="#000" rx="130"/><rect width="600" height="600" fill="url(#b)" rx="130" style="mix-blend-mode:luminosity"/><rect width="600" height="600" fill="#000" fill-opacity=".7" rx="130"/><g filter="url(#c)"><rect width="212" height="212" x="-184" y="54" fill="url(#d)" rx="65" shape-rendering="crispEdges"/><rect width="212" height="212" x="-184" y="54" fill="#000" fill-opacity=".2" rx="65" shape-rendering="crispEdges"/><g filter="url(#e)" style="mix-blend-mode:color-dodge"/></g><g filter="url(#f)"><rect width="212" height="212" x="68" y="54" fill="url(#g)" rx="65" shape-rendering="crispEdges"/><rect width="212" height="212" x="68" y="54" fill="#000" fill-opacity=".2" rx="65" shape-rendering="crispEdges"/><path fill="#00D486" d="M174 224.5a9.845 9.845 0 0 1-4.94-1.327l-15.72-9.339c-2.347-1.317-1.203-1.783-.427-2.055a31.221 31.221 0 0 0 7.111-3.225 1.215 1.215 0 0 1 1.171.088l12.08 7.201a1.56 1.56 0 0 0 1.46 0l47.106-27.284a1.487 1.487 0 0 0 .72-1.281v-54.577a1.52 1.52 0 0 0-.73-1.303l-47.106-27.261a1.471 1.471 0 0 0-1.455 0l-47.078 27.27a1.517 1.517 0 0 0-.744 1.294v54.554a1.457 1.457 0 0 0 .739 1.263l12.92 7.482c7.001 3.51 11.29-.627 11.29-4.782v-53.863a1.386 1.386 0 0 1 .403-.978 1.376 1.376 0 0 1 .974-.404h5.969c.365 0 .715.145.973.404.259.26.404.611.404.978v53.867c0 9.376-5.087 14.743-13.948 14.743a20.093 20.093 0 0 1-10.849-2.958l-12.383-7.127a9.957 9.957 0 0 1-3.617-3.651 10.004 10.004 0 0 1-1.323-4.974v-54.554a9.993 9.993 0 0 1 1.317-4.983 9.946 9.946 0 0 1 3.623-3.655l47.111-27.293a10.28 10.28 0 0 1 9.898 0l47.106 27.293a9.969 9.969 0 0 1 4.945 8.615v54.577a10.026 10.026 0 0 1-1.328 4.973 9.975 9.975 0 0 1-3.617 3.652l-47.106 27.293A9.855 9.855 0 0 1 174 224.5Z"/><path fill="#00D486" d="M165 169.189c0-.363.147-.713.408-.97s.616-.402.985-.402h6.163c.329.001.648.117.898.327.251.21.418.501.472.821.929 6.181 3.715 9.296 16.315 9.296 10.036 0 14.313-2.237 14.313-7.484 0-3.024-1.212-5.27-16.812-6.775-13.04-1.272-21.103-4.117-21.103-14.383 0-9.469 8.104-15.119 21.688-15.119 15.266 0 22.822 5.22 23.778 16.418a1.352 1.352 0 0 1-.36 1.031 1.392 1.392 0 0 1-1.01.447h-6.204a1.402 1.402 0 0 1-.855-.304 1.374 1.374 0 0 1-.483-.757c-1.481-6.501-5.108-8.578-14.861-8.578-10.96 0-12.233 3.761-12.233 6.579 0 3.412 1.505 4.41 16.301 6.335 14.643 1.908 21.6 4.607 21.6 14.745 0 10.228-8.657 16.084-23.755 16.084-20.875.027-25.245-9.401-25.245-17.311Z"/><g fill="#00D486" filter="url(#h)" style="mix-blend-mode:color-dodge"><path d="M174 224.5a9.845 9.845 0 0 1-4.94-1.327l-15.72-9.339c-2.347-1.317-1.203-1.783-.427-2.055a31.221 31.221 0 0 0 7.111-3.225 1.215 1.215 0 0 1 1.171.088l12.08 7.201a1.56 1.56 0 0 0 1.46 0l47.106-27.284a1.487 1.487 0 0 0 .72-1.281v-54.577a1.52 1.52 0 0 0-.73-1.303l-47.106-27.261a1.471 1.471 0 0 0-1.455 0l-47.078 27.27a1.517 1.517 0 0 0-.744 1.294v54.554a1.457 1.457 0 0 0 .739 1.263l12.92 7.482c7.001 3.51 11.29-.627 11.29-4.782v-53.863a1.386 1.386 0 0 1 .403-.978 1.376 1.376 0 0 1 .974-.404h5.969c.365 0 .715.145.973.404.259.26.404.611.404.978v53.867c0 9.376-5.087 14.743-13.948 14.743a20.093 20.093 0 0 1-10.849-2.958l-12.383-7.127a9.957 9.957 0 0 1-3.617-3.651 10.004 10.004 0 0 1-1.323-4.974v-54.554a9.993 9.993 0 0 1 1.317-4.983 9.946 9.946 0 0 1 3.623-3.655l47.111-27.293a10.28 10.28 0 0 1 9.898 0l47.106 27.293a9.969 9.969 0 0 1 4.945 8.615v54.577a10.026 10.026 0 0 1-1.328 4.973 9.975 9.975 0 0 1-3.617 3.652l-47.106 27.293A9.855 9.855 0 0 1 174 224.5Z"/><path d="M165 169.189c0-.363.147-.713.408-.97s.616-.402.985-.402h6.163c.329.001.648.117.898.327.251.21.418.501.472.821.929 6.181 3.715 9.296 16.315 9.296 10.036 0 14.313-2.237 14.313-7.484 0-3.024-1.212-5.27-16.812-6.775-13.04-1.272-21.103-4.117-21.103-14.383 0-9.469 8.104-15.119 21.688-15.119 15.266 0 22.822 5.22 23.778 16.418a1.352 1.352 0 0 1-.36 1.031 1.392 1.392 0 0 1-1.01.447h-6.204a1.402 1.402 0 0 1-.855-.304 1.374 1.374 0 0 1-.483-.757c-1.481-6.501-5.108-8.578-14.861-8.578-10.96 0-12.233 3.761-12.233 6.579 0 3.412 1.505 4.41 16.301 6.335 14.643 1.908 21.6 4.607 21.6 14.745 0 10.228-8.657 16.084-23.755 16.084-20.875.027-25.245-9.401-25.245-17.311Z"/></g></g><g filter="url(#i)"><rect width="212" height="212" x="320" y="54" fill="url(#j)" rx="65" shape-rendering="crispEdges"/><rect width="212" height="212" x="320" y="54" fill="#000" fill-opacity=".2" rx="65" shape-rendering="crispEdges"/><path fill="#FF2D20" fill-rule="evenodd" d="M478.207 129.462c.039.144.059.293.059.442v23.21a1.682 1.682 0 0 1-.852 1.468l-19.523 11.216v22.231c0 .605-.322 1.163-.848 1.468l-40.753 23.408c-.093.053-.195.087-.296.123-.039.013-.075.036-.115.047a1.706 1.706 0 0 1-.869 0c-.047-.013-.089-.038-.134-.055-.093-.034-.19-.064-.279-.115l-40.745-23.408a1.7 1.7 0 0 1-.852-1.468v-69.63c0-.153.021-.301.059-.445.013-.048.043-.093.06-.141.032-.089.061-.18.108-.263.032-.055.078-.099.116-.15.049-.068.094-.137.151-.197.049-.048.112-.084.167-.127.062-.05.117-.105.187-.146l20.375-11.704a1.706 1.706 0 0 1 1.696 0l20.374 11.704h.004c.068.043.125.096.186.144.055.043.117.081.166.127.059.062.101.131.152.199.036.051.085.095.115.15.049.085.076.174.11.263.017.048.047.093.059.143.039.145.059.293.06.443v43.49l16.977-9.754v-22.233c0-.148.021-.298.059-.44.015-.051.042-.095.059-.144.034-.089.064-.18.111-.262.031-.055.078-.1.114-.15.051-.068.093-.138.153-.197.049-.049.11-.085.165-.127.064-.051.119-.106.187-.146l20.377-11.704a1.694 1.694 0 0 1 1.696 0l20.373 11.704c.072.042.128.095.191.144.053.042.115.08.163.127.06.061.102.131.153.199.038.05.085.095.115.15.048.082.076.173.11.262.019.049.046.093.059.144Zm-3.337 22.673v-19.301l-7.129 4.095-9.85 5.659v19.301l16.981-9.754h-.002Zm-20.373 34.914v-19.313l-9.688 5.521-27.666 15.755v19.496l37.354-21.459Zm-78.101-65.721v65.721l37.35 21.456v-19.491l-19.512-11.019-.006-.004-.009-.004c-.066-.038-.121-.093-.182-.14-.053-.042-.115-.076-.161-.122l-.005-.007c-.055-.053-.093-.118-.14-.178-.042-.057-.093-.105-.127-.165l-.002-.006c-.038-.063-.061-.139-.089-.211-.027-.064-.063-.123-.08-.191-.022-.08-.026-.167-.034-.249-.009-.064-.026-.127-.026-.191v-45.445l-9.847-5.66-7.13-4.094Zm18.677-12.679-16.974 9.75 16.97 9.749 16.973-9.752-16.973-9.747h.004Zm8.828 60.847 9.848-5.657v-42.511l-7.13 4.096-9.85 5.658v42.511l7.132-4.097Zm52.294-49.342-16.973 9.75 16.973 9.75 16.971-9.752-16.971-9.748Zm-1.698 22.434-9.849-5.659-7.13-4.095v19.301l9.847 5.656 7.132 4.098v-19.301Zm-39.055 43.494 24.896-14.181 12.444-7.087-16.96-9.743-19.527 11.218-17.798 10.223 16.945 9.57Z" clip-rule="evenodd"/><g filter="url(#k)" style="mix-blend-mode:color-dodge"><path fill="#FF2D20" fill-rule="evenodd" d="M478.207 129.462c.039.144.059.293.059.442v23.21a1.682 1.682 0 0 1-.852 1.468l-19.523 11.216v22.231c0 .605-.322 1.163-.848 1.468l-40.753 23.408c-.093.053-.195.087-.296.123-.039.013-.075.036-.115.047a1.706 1.706 0 0 1-.869 0c-.047-.013-.089-.038-.134-.055-.093-.034-.19-.064-.279-.115l-40.745-23.408a1.7 1.7 0 0 1-.852-1.468v-69.63c0-.153.021-.301.059-.445.013-.048.043-.093.06-.141.032-.089.061-.18.108-.263.032-.055.078-.099.116-.15.049-.068.094-.137.151-.197.049-.048.112-.084.167-.127.062-.05.117-.105.187-.146l20.375-11.704a1.706 1.706 0 0 1 1.696 0l20.374 11.704h.004c.068.043.125.096.186.144.055.043.117.081.166.127.059.062.101.131.152.199.036.051.085.095.115.15.049.085.076.174.11.263.017.048.047.093.059.143.039.145.059.293.06.443v43.49l16.977-9.754v-22.233c0-.148.021-.298.059-.44.015-.051.042-.095.059-.144.034-.089.064-.18.111-.262.031-.055.078-.1.114-.15.051-.068.093-.138.153-.197.049-.049.11-.085.165-.127.064-.051.119-.106.187-.146l20.377-11.704a1.694 1.694 0 0 1 1.696 0l20.373 11.704c.072.042.128.095.191.144.053.042.115.08.163.127.06.061.102.131.153.199.038.05.085.095.115.15.048.082.076.173.11.262.019.049.046.093.059.144Zm-3.337 22.673v-19.301l-7.129 4.095-9.85 5.659v19.301l16.981-9.754h-.002Zm-20.373 34.914v-19.313l-9.688 5.521-27.666 15.755v19.496l37.354-21.459Zm-78.101-65.721v65.721l37.35 21.456v-19.491l-19.512-11.019-.006-.004-.009-.004c-.066-.038-.121-.093-.182-.14-.053-.042-.115-.076-.161-.122l-.005-.007c-.055-.053-.093-.118-.14-.178-.042-.057-.093-.105-.127-.165l-.002-.006c-.038-.063-.061-.139-.089-.211-.027-.064-.063-.123-.08-.191-.022-.08-.026-.167-.034-.249-.009-.064-.026-.127-.026-.191v-45.445l-9.847-5.66-7.13-4.094Zm18.677-12.679-16.974 9.75 16.97 9.749 16.973-9.752-16.973-9.747h.004Zm8.828 60.847 9.848-5.657v-42.511l-7.13 4.096-9.85 5.658v42.511l7.132-4.097Zm52.294-49.342-16.973 9.75 16.973 9.75 16.971-9.752-16.971-9.748Zm-1.698 22.434-9.849-5.659-7.13-4.095v19.301l9.847 5.656 7.132 4.098v-19.301Zm-39.055 43.494 24.896-14.181 12.444-7.087-16.96-9.743-19.527 11.218-17.798 10.223 16.945 9.57Z" clip-rule="evenodd"/></g></g><g filter="url(#l)"><rect width="212" height="212" x="572" y="54" fill="url(#m)" rx="65" shape-rendering="crispEdges"/><rect width="212" height="212" x="572" y="54" fill="#000" fill-opacity=".2" rx="65" shape-rendering="crispEdges"/><g filter="url(#n)" style="mix-blend-mode:color-dodge"/></g><g filter="url(#o)"><rect width="212" height="212" x="-58" y="334" fill="url(#p)" rx="65" shape-rendering="crispEdges"/><rect width="212" height="212" x="-58" y="334" fill="#000" fill-opacity=".2" rx="65" shape-rendering="crispEdges"/><g clip-path="url(#q)"><path fill="#E55B2D" d="M56.183 397.479v18.899l32.73 18.898v-18.898l-32.73-18.899ZM-9.28 416.378v18.898l16.365 9.448v-18.897l-16.365-9.449Zm49.095 9.449-16.365 9.449v56.692l16.365 9.449v-37.795l16.368 9.449v-18.898l-16.368-9.449v-18.897Z"/><path fill="#ED8E24" d="M56.183 397.479 7.085 425.827v18.897l32.73-18.897v18.897l16.368-9.448v-37.797Zm49.097 9.45-16.367 9.449v18.898l16.367-9.449v-18.898Zm-32.732 37.795-16.365 9.449v18.898l16.365-9.449v-18.898Zm-16.365 28.347-16.368-9.449v37.795l16.368-9.449v-18.897Z"/><path fill="#F8BF3C" d="M56.183 378.583-9.28 416.378l16.365 9.449 49.098-28.348 32.73 18.899 16.367-9.449-49.097-28.346Zm0 56.693-16.368 9.448 16.368 9.449 16.365-9.449-16.365-9.448Z"/></g><g filter="url(#r)" opacity=".7" style="mix-blend-mode:color-dodge"><path fill="#E55B2D" d="M56.183 397.479v18.899l32.73 18.898v-18.898l-32.73-18.899ZM-9.28 416.378v18.898l16.365 9.448v-18.897l-16.365-9.449Zm49.095 9.449-16.365 9.449v56.692l16.365 9.449v-37.795l16.368 9.449v-18.898l-16.368-9.449v-18.897Z"/><path fill="#ED8E24" d="M56.183 397.479 7.085 425.827v18.897l32.73-18.897v18.897l16.368-9.448v-37.797Zm49.097 9.45-16.367 9.449v18.898l16.367-9.449v-18.898Zm-32.732 37.795-16.365 9.449v18.898l16.365-9.449v-18.898Zm-16.365 28.347-16.368-9.449v37.795l16.368-9.449v-18.897Z"/><path fill="#F8BF3C" d="M56.183 378.583-9.28 416.378l16.365 9.449 49.098-28.348 32.73 18.899 16.367-9.449-49.097-28.346Zm0 56.693-16.368 9.448 16.368 9.449 16.365-9.449-16.365-9.448Z"/></g></g><g filter="url(#s)"><rect width="212" height="212" x="194" y="334" fill="url(#t)" rx="65" shape-rendering="crispEdges"/><rect width="212" height="212" x="194" y="334" fill="#000" fill-opacity=".2" rx="65" shape-rendering="crispEdges"/><g clip-path="url(#u)"><path fill="url(#v)" d="M296.507 419.552a6.976 6.976 0 0 1 6.986 0l47.976 27.714c4.708 2.719 4.708 9.563 0 12.282l-47.976 27.715a6.98 6.98 0 0 1-6.986 0l-47.976-27.715c-4.708-2.719-4.708-9.563 0-12.282l47.976-27.714Zm3.492 14.296-33.853 19.558 33.853 19.554 33.852-19.554-33.852-19.558Z"/><path fill="url(#w)" d="M296.507 392.437a6.98 6.98 0 0 1 6.986 0l47.976 27.715c4.708 2.719 4.708 9.562 0 12.282l-47.976 27.714a6.976 6.976 0 0 1-6.986 0l-47.976-27.714c-4.708-2.72-4.708-9.563 0-12.282l47.976-27.715Zm3.492 14.297-33.853 19.557 33.853 19.554 33.852-19.554-33.852-19.557Z"/><path fill="url(#x)" d="m296.644 419.541 6.95 12.303-48.095 27.594-6.95-12.303 48.095-27.594Z"/></g><g filter="url(#y)" style="mix-blend-mode:color-dodge"><g clip-path="url(#z)"><path fill="url(#A)" d="M296.507 419.552a6.976 6.976 0 0 1 6.986 0l47.976 27.714c4.708 2.719 4.708 9.563 0 12.282l-47.976 27.715a6.98 6.98 0 0 1-6.986 0l-47.976-27.715c-4.708-2.719-4.708-9.563 0-12.282l47.976-27.714Zm3.492 14.296-33.853 19.558 33.853 19.554 33.852-19.554-33.852-19.558Z"/><path fill="url(#B)" d="M296.507 392.437a6.98 6.98 0 0 1 6.986 0l47.976 27.715c4.708 2.719 4.708 9.562 0 12.282l-47.976 27.714a6.976 6.976 0 0 1-6.986 0l-47.976-27.714c-4.708-2.72-4.708-9.563 0-12.282l47.976-27.715Zm3.492 14.297-33.853 19.557 33.853 19.554 33.852-19.554-33.852-19.557Z"/><path fill="url(#C)" d="m296.644 419.541 6.95 12.303-48.095 27.594-6.95-12.303 48.095-27.594Z"/></g></g></g><g filter="url(#D)"><rect width="212" height="212" x="446" y="334" fill="url(#E)" rx="65" shape-rendering="crispEdges"/><rect width="212" height="212" x="446" y="334" fill="#000" fill-opacity=".2" rx="65" shape-rendering="crispEdges"/><g clip-path="url(#F)"><path fill="#61DAFB" d="M552.001 452.722c7.027 0 12.723-5.696 12.723-12.723 0-7.027-5.696-12.723-12.723-12.723-7.027 0-12.723 5.696-12.723 12.723 0 7.027 5.696 12.723 12.723 12.723Z"/><path stroke="#61DAFB" stroke-width="6.206" d="M551.999 466.068c37.704 0 68.268-11.67 68.268-26.066 0-14.395-30.564-26.065-68.268-26.065-37.703 0-68.268 11.67-68.268 26.065 0 14.396 30.565 26.066 68.268 26.066Z"/><path stroke="#61DAFB" stroke-width="6.206" d="M529.428 453.032c18.852 32.653 44.24 53.287 56.708 46.089 12.467-7.198 7.291-39.502-11.561-72.154-18.851-32.653-44.24-53.287-56.707-46.089-12.468 7.198-7.292 39.502 11.56 72.154Z"/><path stroke="#61DAFB" stroke-width="6.206" d="M529.428 426.968c-18.851 32.652-24.027 64.957-11.56 72.155 12.467 7.198 37.856-13.437 56.708-46.089 18.852-32.652 24.027-64.957 11.56-72.155-12.467-7.198-37.856 13.437-56.708 46.089Z"/></g><g clip-path="url(#G)" filter="url(#H)" opacity=".5" style="mix-blend-mode:color-dodge"><path fill="#61DAFB" d="M552.001 452.722c7.027 0 12.723-5.696 12.723-12.723 0-7.027-5.696-12.723-12.723-12.723-7.027 0-12.723 5.696-12.723 12.723 0 7.027 5.696 12.723 12.723 12.723Z"/><path stroke="#61DAFB" stroke-width="6.206" d="M551.999 466.068c37.704 0 68.268-11.67 68.268-26.066 0-14.395-30.564-26.065-68.268-26.065-37.703 0-68.268 11.67-68.268 26.065 0 14.396 30.565 26.066 68.268 26.066Z"/><path stroke="#61DAFB" stroke-width="6.206" d="M529.428 453.032c18.852 32.653 44.24 53.287 56.708 46.089 12.467-7.198 7.291-39.502-11.561-72.154-18.851-32.653-44.24-53.287-56.707-46.089-12.468 7.198-7.292 39.502 11.56 72.154Z"/><path stroke="#61DAFB" stroke-width="6.206" d="M529.428 426.968c-18.851 32.652-24.027 64.957-11.56 72.155 12.467 7.198 37.856-13.437 56.708-46.089 18.852-32.652 24.027-64.957 11.56-72.155-12.467-7.198-37.856 13.437-56.708 46.089Z"/></g></g></g><defs><linearGradient id="b" x1="300" x2="300" y1="0" y2="600" gradientUnits="userSpaceOnUse"><stop stop-color="#959595"/><stop offset=".54" stop-color="#686868"/><stop offset="1" stop-color="#4E4E4E"/></linearGradient><linearGradient id="d" x1="-78" x2="-78" y1="54" y2="266" gradientUnits="userSpaceOnUse"><stop stop-color="#2C2C2C"/><stop offset="1" stop-color="#1A1A1A"/></linearGradient><linearGradient id="g" x1="174" x2="174" y1="54" y2="266" gradientUnits="userSpaceOnUse"><stop stop-color="#2C2C2C"/><stop offset="1" stop-color="#1A1A1A"/></linearGradient><linearGradient id="j" x1="426" x2="426" y1="54" y2="266" gradientUnits="userSpaceOnUse"><stop stop-color="#2C2C2C"/><stop offset="1" stop-color="#1A1A1A"/></linearGradient><linearGradient id="m" x1="678" x2="678" y1="54" y2="266" gradientUnits="userSpaceOnUse"><stop stop-color="#2C2C2C"/><stop offset="1" stop-color="#1A1A1A"/></linearGradient><linearGradient id="p" x1="48" x2="48" y1="334" y2="546" gradientUnits="userSpaceOnUse"><stop stop-color="#2C2C2C"/><stop offset="1" stop-color="#1A1A1A"/></linearGradient><linearGradient id="t" x1="300" x2="300" y1="334" y2="546" gradientUnits="userSpaceOnUse"><stop stop-color="#2C2C2C"/><stop offset="1" stop-color="#1A1A1A"/></linearGradient><linearGradient id="v" x1="-464.677" x2="9620.93" y1="3882.84" y2="3882.84" gradientUnits="userSpaceOnUse"><stop stop-color="#F9D100"/><stop offset="1" stop-color="#F97700"/></linearGradient><linearGradient id="w" x1="11913.7" x2="1814.48" y1="3855.72" y2="3855.72" gradientUnits="userSpaceOnUse"><stop stop-color="#F9D100"/><stop offset="1" stop-color="#F97700"/></linearGradient><linearGradient id="x" x1="-459.955" x2="9594.73" y1="3446.26" y2="3371.49" gradientUnits="userSpaceOnUse"><stop stop-color="#F9D100"/><stop offset="1" stop-color="#F97700"/></linearGradient><linearGradient id="A" x1="-464.677" x2="9620.93" y1="3882.84" y2="3882.84" gradientUnits="userSpaceOnUse"><stop stop-color="#F9D100"/><stop offset="1" stop-color="#F97700"/></linearGradient><linearGradient id="B" x1="11913.7" x2="1814.48" y1="3855.72" y2="3855.72" gradientUnits="userSpaceOnUse"><stop stop-color="#F9D100"/><stop offset="1" stop-color="#F97700"/></linearGradient><linearGradient id="C" x1="-459.955" x2="9594.73" y1="3446.26" y2="3371.49" gradientUnits="userSpaceOnUse"><stop stop-color="#F9D100"/><stop offset="1" stop-color="#F97700"/></linearGradient><linearGradient id="E" x1="552" x2="552" y1="334" y2="546" gradientUnits="userSpaceOnUse"><stop stop-color="#2C2C2C"/><stop offset="1" stop-color="#1A1A1A"/></linearGradient><filter id="c" width="246.6" height="250.3" x="-207.3" y="29.7" color-interpolation-filters="sRGB" filterUnits="userSpaceOnUse"><feFlood flood-opacity="0" result="BackgroundImageFix"/><feColorMatrix in="SourceAlpha" result="hardAlpha" values="0 0 0 0 0 0 0 0 0 0 0 0 0 0 0 0 0 0 127 0"/><feOffset dx="-6" dy="-7"/><feGaussianBlur stdDeviation="8.65"/><feComposite in2="hardAlpha" operator="out"/><feColorMatrix values="0 0 0 0 1 0 0 0 0 1 0 0 0 0 1 0 0 0 0.06 0"/><feBlend in2="BackgroundImageFix" result="effect1_dropShadow_48_49"/><feBlend in="SourceGraphic" in2="effect1_dropShadow_48_49" result="shape"/><feColorMatrix in="SourceAlpha" result="hardAlpha" values="0 0 0 0 0 0 0 0 0 0 0 0 0 0 0 0 0 0 127 0"/><feOffset dx="6" dy="14"/><feGaussianBlur stdDeviation="15.4"/><feComposite in2="hardAlpha" k2="-1" k3="1" operator="arithmetic"/><feColorMatrix values="0 0 0 0 0 0 0 0 0 0 0 0 0 0 0 0 0 0 0.54 0"/><feBlend in2="shape" result="effect2_innerShadow_48_49"/></filter><filter id="e" width="171" height="175" x="-163.5" y="72.5" color-interpolation-filters="sRGB" filterUnits="userSpaceOnUse"><feFlood flood-opacity="0" result="BackgroundImageFix"/><feBlend in="SourceGraphic" in2="BackgroundImageFix" result="shape"/><feGaussianBlur result="effect1_foregroundBlur_48_49" stdDeviation="16.25"/></filter><filter id="f" width="246.6" height="250.3" x="44.7" y="29.7" color-interpolation-filters="sRGB" filterUnits="userSpaceOnUse"><feFlood flood-opacity="0" result="BackgroundImageFix"/><feColorMatrix in="SourceAlpha" result="hardAlpha" values="0 0 0 0 0 0 0 0 0 0 0 0 0 0 0 0 0 0 127 0"/><feOffset dx="-6" dy="-7"/><feGaussianBlur stdDeviation="8.65"/><feComposite in2="hardAlpha" operator="out"/><feColorMatrix values="0 0 0 0 1 0 0 0 0 1 0 0 0 0 1 0 0 0 0.06 0"/><feBlend in2="BackgroundImageFix" result="effect1_dropShadow_48_49"/><feBlend in="SourceGraphic" in2="effect1_dropShadow_48_49" result="shape"/><feColorMatrix in="SourceAlpha" result="hardAlpha" values="0 0 0 0 0 0 0 0 0 0 0 0 0 0 0 0 0 0 127 0"/><feOffset dx="6" dy="14"/><feGaussianBlur stdDeviation="15.4"/><feComposite in2="hardAlpha" k2="-1" k3="1" operator="arithmetic"/><feColorMatrix values="0 0 0 0 0 0 0 0 0 0 0 0 0 0 0 0 0 0 0.54 0"/><feBlend in2="shape" result="effect2_innerShadow_48_49"/></filter><filter id="h" width="179" height="194" x="84.5" y="63" color-interpolation-filters="sRGB" filterUnits="userSpaceOnUse"><feFlood flood-opacity="0" result="BackgroundImageFix"/><feBlend in="SourceGraphic" in2="BackgroundImageFix" result="shape"/><feGaussianBlur result="effect1_foregroundBlur_48_49" stdDeviation="16.25"/></filter><filter id="i" width="246.6" height="250.3" x="296.7" y="29.7" color-interpolation-filters="sRGB" filterUnits="userSpaceOnUse"><feFlood flood-opacity="0" result="BackgroundImageFix"/><feColorMatrix in="SourceAlpha" result="hardAlpha" values="0 0 0 0 0 0 0 0 0 0 0 0 0 0 0 0 0 0 127 0"/><feOffset dx="-6" dy="-7"/><feGaussianBlur stdDeviation="8.65"/><feComposite in2="hardAlpha" operator="out"/><feColorMatrix values="0 0 0 0 1 0 0 0 0 1 0 0 0 0 1 0 0 0 0.06 0"/><feBlend in2="BackgroundImageFix" result="effect1_dropShadow_48_49"/><feBlend in="SourceGraphic" in2="effect1_dropShadow_48_49" result="shape"/><feColorMatrix in="SourceAlpha" result="hardAlpha" values="0 0 0 0 0 0 0 0 0 0 0 0 0 0 0 0 0 0 127 0"/><feOffset dx="6" dy="14"/><feGaussianBlur stdDeviation="15.4"/><feComposite in2="hardAlpha" k2="-1" k3="1" operator="arithmetic"/><feColorMatrix values="0 0 0 0 0 0 0 0 0 0 0 0 0 0 0 0 0 0 0.54 0"/><feBlend in2="shape" result="effect2_innerShadow_48_49"/></filter><filter id="k" width="171" height="175" x="340.5" y="72.5" color-interpolation-filters="sRGB" filterUnits="userSpaceOnUse"><feFlood flood-opacity="0" result="BackgroundImageFix"/><feBlend in="SourceGraphic" in2="BackgroundImageFix" result="shape"/><feGaussianBlur result="effect1_foregroundBlur_48_49" stdDeviation="16.25"/></filter><filter id="l" width="246.6" height="250.3" x="548.7" y="29.7" color-interpolation-filters="sRGB" filterUnits="userSpaceOnUse"><feFlood flood-opacity="0" result="BackgroundImageFix"/><feColorMatrix in="SourceAlpha" result="hardAlpha" values="0 0 0 0 0 0 0 0 0 0 0 0 0 0 0 0 0 0 127 0"/><feOffset dx="-6" dy="-7"/><feGaussianBlur stdDeviation="8.65"/><feComposite in2="hardAlpha" operator="out"/><feColorMatrix values="0 0 0 0 1 0 0 0 0 1 0 0 0 0 1 0 0 0 0.06 0"/><feBlend in2="BackgroundImageFix" result="effect1_dropShadow_48_49"/><feBlend in="SourceGraphic" in2="effect1_dropShadow_48_49" result="shape"/><feColorMatrix in="SourceAlpha" result="hardAlpha" values="0 0 0 0 0 0 0 0 0 0 0 0 0 0 0 0 0 0 127 0"/><feOffset dx="6" dy="14"/><feGaussianBlur stdDeviation="15.4"/><feComposite in2="hardAlpha" k2="-1" k3="1" operator="arithmetic"/><feColorMatrix values="0 0 0 0 0 0 0 0 0 0 0 0 0 0 0 0 0 0 0.54 0"/><feBlend in2="shape" result="effect2_innerShadow_48_49"/></filter><filter id="n" width="175" height="162" x="590.5" y="79" color-interpolation-filters="sRGB" filterUnits="userSpaceOnUse"><feFlood flood-opacity="0" result="BackgroundImageFix"/><feBlend in="SourceGraphic" in2="BackgroundImageFix" result="shape"/><feGaussianBlur result="effect1_foregroundBlur_48_49" stdDeviation="16.25"/></filter><filter id="o" width="246.6" height="250.3" x="-81.3" y="309.7" color-interpolation-filters="sRGB" filterUnits="userSpaceOnUse"><feFlood flood-opacity="0" result="BackgroundImageFix"/><feColorMatrix in="SourceAlpha" result="hardAlpha" values="0 0 0 0 0 0 0 0 0 0 0 0 0 0 0 0 0 0 127 0"/><feOffset dx="-6" dy="-7"/><feGaussianBlur stdDeviation="8.65"/><feComposite in2="hardAlpha" operator="out"/><feColorMatrix values="0 0 0 0 1 0 0 0 0 1 0 0 0 0 1 0 0 0 0.06 0"/><feBlend in2="BackgroundImageFix" result="effect1_dropShadow_48_49"/><feBlend in="SourceGraphic" in2="effect1_dropShadow_48_49" result="shape"/><feColorMatrix in="SourceAlpha" result="hardAlpha" values="0 0 0 0 0 0 0 0 0 0 0 0 0 0 0 0 0 0 127 0"/><feOffset dx="6" dy="14"/><feGaussianBlur stdDeviation="15.4"/><feComposite in2="hardAlpha" k2="-1" k3="1" operator="arithmetic"/><feColorMatrix values="0 0 0 0 0 0 0 0 0 0 0 0 0 0 0 0 0 0 0.54 0"/><feBlend in2="shape" result="effect2_innerShadow_48_49"/></filter><filter id="r" width="179.561" height="187.834" x="-41.78" y="346.083" color-interpolation-filters="sRGB" filterUnits="userSpaceOnUse"><feFlood flood-opacity="0" result="BackgroundImageFix"/><feBlend in="SourceGraphic" in2="BackgroundImageFix" result="shape"/><feGaussianBlur result="effect1_foregroundBlur_48_49" stdDeviation="16.25"/></filter><filter id="s" width="246.6" height="250.3" x="170.7" y="309.7" color-interpolation-filters="sRGB" filterUnits="userSpaceOnUse"><feFlood flood-opacity="0" result="BackgroundImageFix"/><feColorMatrix in="SourceAlpha" result="hardAlpha" values="0 0 0 0 0 0 0 0 0 0 0 0 0 0 0 0 0 0 127 0"/><feOffset dx="-6" dy="-7"/><feGaussianBlur stdDeviation="8.65"/><feComposite in2="hardAlpha" operator="out"/><feColorMatrix values="0 0 0 0 1 0 0 0 0 1 0 0 0 0 1 0 0 0 0.06 0"/><feBlend in2="BackgroundImageFix" result="effect1_dropShadow_48_49"/><feBlend in="SourceGraphic" in2="effect1_dropShadow_48_49" result="shape"/><feColorMatrix in="SourceAlpha" result="hardAlpha" values="0 0 0 0 0 0 0 0 0 0 0 0 0 0 0 0 0 0 127 0"/><feOffset dx="6" dy="14"/><feGaussianBlur stdDeviation="15.4"/><feComposite in2="hardAlpha" k2="-1" k3="1" operator="arithmetic"/><feColorMatrix values="0 0 0 0 0 0 0 0 0 0 0 0 0 0 0 0 0 0 0.54 0"/><feBlend in2="shape" result="effect2_innerShadow_48_49"/></filter><filter id="y" width="175" height="162" x="212.5" y="359" color-interpolation-filters="sRGB" filterUnits="userSpaceOnUse"><feFlood flood-opacity="0" result="BackgroundImageFix"/><feBlend in="SourceGraphic" in2="BackgroundImageFix" result="shape"/><feGaussianBlur result="effect1_foregroundBlur_48_49" stdDeviation="16.25"/></filter><filter id="D" width="246.6" height="250.3" x="422.7" y="309.7" color-interpolation-filters="sRGB" filterUnits="userSpaceOnUse"><feFlood flood-opacity="0" result="BackgroundImageFix"/><feColorMatrix in="SourceAlpha" result="hardAlpha" values="0 0 0 0 0 0 0 0 0 0 0 0 0 0 0 0 0 0 127 0"/><feOffset dx="-6" dy="-7"/><feGaussianBlur stdDeviation="8.65"/><feComposite in2="hardAlpha" operator="out"/><feColorMatrix values="0 0 0 0 1 0 0 0 0 1 0 0 0 0 1 0 0 0 0.06 0"/><feBlend in2="BackgroundImageFix" result="effect1_dropShadow_48_49"/><feBlend in="SourceGraphic" in2="effect1_dropShadow_48_49" result="shape"/><feColorMatrix in="SourceAlpha" result="hardAlpha" values="0 0 0 0 0 0 0 0 0 0 0 0 0 0 0 0 0 0 127 0"/><feOffset dx="6" dy="14"/><feGaussianBlur stdDeviation="15.4"/><feComposite in2="hardAlpha" k2="-1" k3="1" operator="arithmetic"/><feColorMatrix values="0 0 0 0 0 0 0 0 0 0 0 0 0 0 0 0 0 0 0.54 0"/><feBlend in2="shape" result="effect2_innerShadow_48_49"/></filter><filter id="H" width="207.742" height="192" x="448.129" y="344" color-interpolation-filters="sRGB" filterUnits="userSpaceOnUse"><feFlood flood-opacity="0" result="BackgroundImageFix"/><feBlend in="SourceGraphic" in2="BackgroundImageFix" result="shape"/><feGaussianBlur result="effect1_foregroundBlur_48_49" stdDeviation="16.25"/></filter><clipPath id="a"><rect width="600" height="600" fill="#fff" rx="130"/></clipPath><clipPath id="q"><path fill="#fff" d="M0 0h114.561v122.834H0z" transform="translate(-9.28 378.583)"/></clipPath><clipPath id="u"><path fill="#fff" d="M0 0h110v97H0z" transform="translate(245 391.5)"/></clipPath><clipPath id="z"><path fill="#fff" d="M0 0h110v97H0z" transform="translate(245 391.5)"/></clipPath><clipPath id="F"><path fill="#fff" d="M0 0h142.742v127H0z" transform="translate(480.629 376.5)"/></clipPath><clipPath id="G"><path fill="#fff" d="M0 0h142.742v127H0z" transform="translate(480.629 376.5)"/></clipPath></defs></svg>