<svg xmlns="http://www.w3.org/2000/svg" width="600" height="600" fill="none" viewBox="0 0 600 600"><rect width="600" height="600" fill="#CBCBCB" rx="130"/><rect width="600" height="600" fill="#fff" fill-opacity=".4" rx="130"/><path fill="#fff" d="M454.192 348.693a28.61 28.61 0 0 0-3.882-8.581c.377-1.383.665-2.788.856-4.208 1.25-9.01-1.874-17.258-7.76-23.64-3.188-3.485-6.606-5.788-10.226-7.2a136.65 136.65 0 0 0 3.584-31.009c0-4.769-.27-9.44-.723-14.041-.235-2.297-.52-4.59-.854-6.875a137.247 137.247 0 0 0-4.6-19.916 137.38 137.38 0 0 0-4.605-12.625 138.488 138.488 0 0 0-9.107-17.72 122.737 122.737 0 0 0-7.398-10.949 104.136 104.136 0 0 0-4.077-5.195c-4.188-5.09-8.74-9.87-13.618-14.302a106.198 106.198 0 0 0-4.998-4.315 123.456 123.456 0 0 0-5.162-4.076 144.603 144.603 0 0 0-10.949-7.398c-20.777-12.619-45.142-19.856-71.183-19.856-75.822 0-137.274 61.455-137.274 137.272a136.564 136.564 0 0 0 3.649 31.395c-3.257 1.414-6.377 3.619-9.272 6.807-5.884 6.379-9.01 14.597-7.76 23.607.19 1.431.475 2.848.855 4.241a28.63 28.63 0 0 0-3.879 8.584c-1.809 6.877-1.214 13.078 1.085 18.511-2.499 7.101-1.875 14.663 1.38 21.238 2.367 4.802 5.754 8.517 9.931 11.837 4.964 3.947 11.179 7.3 18.675 10.517 8.943 3.814 19.86 7.398 24.824 8.713 12.824 3.32 25.121 5.424 37.583 5.527 17.755.164 33.046-4.011 43.993-14.695 5.378.659 10.791.988 16.21.986a141.26 141.26 0 0 0 17.124-1.078c10.921 10.752 26.27 14.965 44.091 14.796 12.46-.1 24.757-2.204 37.547-5.529 4.998-1.314 15.911-4.898 24.858-8.712 7.496-3.222 13.711-6.575 18.709-10.516 4.144-3.322 7.529-7.035 9.897-11.837 3.289-6.576 3.88-14.138 1.415-21.239 2.276-5.434 2.869-11.648 1.061-18.519Zm-12.725 18.051c2.52 4.781 2.681 10.183.459 15.214-3.371 7.624-11.745 13.631-28.008 20.079-10.113 4.01-19.373 6.574-19.454 6.597-13.376 3.469-25.473 5.232-35.945 5.232-17.341 0-30.245-4.786-38.429-14.236a128.83 128.83 0 0 1-41.832.239c-8.194 9.293-21.024 13.997-38.219 13.997-10.473 0-22.569-1.763-35.946-5.232-.082-.023-9.339-2.587-19.455-6.597-16.261-6.448-24.638-12.45-28.007-20.079-2.223-5.031-2.061-10.433.458-15.214.232-.444.482-.877.749-1.296a19.305 19.305 0 0 1-2.605-15.591c1.001-3.803 3.068-6.967 5.875-9.239a19.23 19.23 0 0 1-2.608-7.269c-.808-5.6 1.051-11.19 5.232-15.749 3.256-3.548 7.859-5.5 12.955-5.5h.135a127.323 127.323 0 0 1-5.777-38.045c0-70.363 57.043-127.411 127.417-127.411 70.372 0 127.415 57.042 127.415 127.411a127.226 127.226 0 0 1-5.818 38.141c.615-.06 1.218-.09 1.811-.092 5.095 0 9.7 1.953 12.953 5.5 4.181 4.555 6.041 10.15 5.232 15.749a19.233 19.233 0 0 1-2.607 7.27c2.807 2.272 4.876 5.435 5.875 9.239a19.295 19.295 0 0 1-2.605 15.59c.267.415.52.848.749 1.292Z"/><path fill="#FF9D00" d="M440.719 365.452a19.3 19.3 0 0 0 2.605-15.591c-1.001-3.804-3.07-6.967-5.875-9.239a19.192 19.192 0 0 0 2.606-7.269c.81-5.6-1.049-11.19-5.231-15.749-3.254-3.548-7.858-5.5-12.954-5.5-.592 0-1.195.032-1.81.092a127.27 127.27 0 0 0 5.807-38.139c0-70.364-57.043-127.411-127.409-127.411-70.368 0-127.417 57.041-127.417 127.411a127.351 127.351 0 0 0 5.778 38.045h-.136c-5.096 0-9.699 1.951-12.954 5.499-4.18 4.554-6.041 10.151-5.231 15.749a19.245 19.245 0 0 0 2.608 7.271c-2.807 2.27-4.876 5.433-5.877 9.237a19.321 19.321 0 0 0 2.608 15.594c-.268.419-.515.852-.749 1.296-2.518 4.781-2.681 10.183-.457 15.214 3.371 7.624 11.745 13.63 28.008 20.079 10.111 4.01 19.373 6.574 19.454 6.597 13.376 3.469 25.473 5.232 35.945 5.232 17.197 0 30.027-4.704 38.221-13.997a128.887 128.887 0 0 0 41.832-.239c8.184 9.45 21.087 14.236 38.428 14.236 10.472 0 22.57-1.763 35.944-5.232.083-.023 9.34-2.587 19.456-6.597 16.263-6.449 24.638-12.455 28.007-20.079 2.223-5.031 2.061-10.433-.458-15.214a15.124 15.124 0 0 0-.749-1.296Zm-168.324 19.872a52.435 52.435 0 0 1-2.264 3.609c-2.118 3.101-4.904 5.471-8.138 7.232-6.182 3.371-14.006 4.549-21.955 4.549-12.557 0-25.429-2.938-32.643-4.809-.356-.092-44.225-12.484-38.671-23.031.935-1.775 2.473-2.483 4.41-2.483 7.82 0 22.06 11.645 28.178 11.645 1.369 0 2.333-.582 2.727-2.002 2.608-9.354-39.64-13.286-36.082-26.83.627-2.397 2.33-3.371 4.725-3.371 10.339-.002 33.545 18.182 38.398 18.182.372 0 .639-.11.784-.34.021-.034.042-.067.061-.104 2.278-3.761.971-6.496-14.634-16.054l-1.499-.913c-17.173-10.393-29.227-16.648-22.373-24.111.79-.861 1.908-1.242 3.267-1.242 1.61 0 3.558.538 5.706 1.442 9.07 3.825 21.641 14.257 26.892 18.805.826.718 1.647 1.442 2.462 2.173 0 0 6.649 6.914 10.668 6.914.926 0 1.711-.365 2.243-1.267 2.851-4.806-26.478-27.032-28.132-36.203-1.122-6.213.787-9.361 4.315-9.361 1.678 0 3.724.715 5.985 2.149 7.011 4.449 20.546 27.709 25.502 36.758 1.661 3.031 4.497 4.313 7.053 4.313 5.07 0 9.033-5.04.464-11.445-12.88-9.636-8.36-25.388-2.213-26.358.262-.042.527-.063.791-.063 5.591 0 8.056 9.632 8.056 9.632s7.227 18.149 19.643 30.556c11.265 11.26 12.839 20.5 6.274 32.028Zm40.147 2.126-.643.077-1.098.125c-.577.06-1.156.117-1.737.17l-.565.051-.517.044-.733.059-.81.059-.808.052-.179.012a62.32 62.32 0 0 1-.636.037l-.27.015c-.25.013-.501.025-.754.036l-.876.038-.795.027-.53.015h-.27c-.166 0-.33.009-.496.01h-.262c-.166 0-.331 0-.496.008l-.676.009h-.942c-.74 0-1.479-.008-2.215-.023l-.597-.013c-.17 0-.341-.008-.508-.014l-.633-.018-.786-.03-.708-.032-.183-.007-.674-.035c-.188-.01-.373-.02-.56-.033l-.436-.026c-.548-.034-1.095-.072-1.642-.114l-.573-.047c-.241-.018-.482-.041-.722-.062-.282-.024-.564-.051-.846-.078a95.432 95.432 0 0 1-1.415-.143h-.023c6.89-15.371 3.406-29.727-10.517-43.638-9.132-9.119-15.206-22.586-16.467-25.542-2.551-8.752-9.302-18.481-20.514-18.481-.949 0-1.895.076-2.832.223-4.911.774-9.205 3.601-12.269 7.855-3.311-4.117-6.528-7.39-9.438-9.239-4.387-2.781-8.765-4.192-13.03-4.192-5.324 0-10.082 2.186-13.399 6.151l-.084.101a99.39 99.39 0 0 1-.185-.784l-.008-.035a111.354 111.354 0 0 1-1.589-8.159c0-.018 0-.036-.009-.054-.033-.207-.063-.415-.095-.622a87.442 87.442 0 0 1-.261-1.839c-.036-.279-.075-.558-.11-.837l-.102-.836c-.034-.279-.061-.533-.091-.798l-.009-.066a118.616 118.616 0 0 1-.317-3.26l-.033-.417-.052-.712a18.78 18.78 0 0 1-.041-.586c0-.047-.008-.092-.009-.136a75.114 75.114 0 0 1-.098-1.64c-.015-.285-.03-.569-.042-.855l-.031-.748-.007-.226-.024-.689-.015-.587c0-.233-.012-.467-.015-.701-.005-.233-.011-.49-.012-.737-.003-.247 0-.491-.008-.737-.006-.247 0-.493 0-.739 0-63.099 51.154-114.255 114.261-114.255 63.104 0 114.258 51.154 114.258 114.255v1.476c0 .246-.008.493-.012.737 0 .204-.009.404-.015.611 0 .181-.008.363-.014.538 0 .231-.013.461-.021.692v.018l-.031.801c-.011.233-.02.469-.032.702l-.008.166-.04.748c-.09 1.602-.211 3.203-.364 4.8v.02c-.025.262-.051.525-.08.787l-.067.62-.135 1.212-.077.613-.095.722c-.034.263-.069.527-.108.787-.039.294-.083.587-.127.879l-.104.692-.123.784c-.043.261-.088.521-.136.78-.05.261-.089.52-.134.779-.091.519-.186 1.038-.285 1.555-.152.773-.308 1.545-.468 2.317l-.165.764a70.13 70.13 0 0 1-.171.766c-3.216-3.125-7.475-4.827-12.171-4.827-4.262 0-8.645 1.409-13.03 4.191-2.91 1.848-6.126 5.123-9.438 9.239-3.068-4.255-7.362-7.082-12.271-7.855a18.131 18.131 0 0 0-2.831-.223c-11.216 0-17.962 9.729-20.515 18.48-1.266 2.957-7.342 16.423-16.481 25.556-13.914 13.868-17.424 28.159-10.643 43.466Zm117.96-30.77-.046.134a7.205 7.205 0 0 1-.764 1.501 9.99 9.99 0 0 1-.828 1.071c-.069.079-.135.157-.214.234-.108.116-.219.231-.332.342-2.029 2.012-5.122 3.776-8.62 5.393-.397.18-.799.359-1.205.54l-.404.179c-.27.119-.54.237-.823.353-.27.118-.55.235-.831.35l-.841.347c-1.967.809-3.983 1.581-5.949 2.343l-.841.327-.831.325c-.553.216-1.099.432-1.636.647l-.8.323-.787.321-.386.163c-.258.107-.51.214-.762.321-5.785 2.483-9.947 5.008-9.073 8.141.024.089.052.173.082.256.078.233.185.451.319.658.079.122.169.238.27.343 1.028 1.069 2.899.901 5.259.052.331-.122.662-.249.989-.382l.205-.084c.54-.229 1.111-.486 1.694-.763.147-.069.294-.136.442-.213 2.886-1.411 6.156-3.31 9.4-5.04a84.315 84.315 0 0 1 3.947-1.997c3.073-1.446 5.962-2.471 8.283-2.471 1.09 0 2.052.223 2.854.735l.134.089c.504.355.926.81 1.241 1.338.062.101.122.208.181.318 1.147 2.178.187 4.434-2.061 6.646-2.157 2.124-5.513 4.206-9.328 6.133-.283.143-.566.286-.854.426-11.353 5.575-26.22 9.774-26.426 9.827-3.962 1.027-9.628 2.375-16.011 3.383l-.944.148-.156.023c-.714.108-1.43.209-2.148.303-.728.098-1.464.187-2.204.269l-.136.016c-2.683.309-5.378.513-8.078.612h-.039c-.977.034-1.952.052-2.929.052h-1.126a69.23 69.23 0 0 1-4.462-.202c-.034 0-.072 0-.107-.009a58.713 58.713 0 0 1-3.24-.348c-.36-.048-.719-.102-1.077-.161a99.78 99.78 0 0 1-1.094-.183l-.496-.093-.037-.008a37.666 37.666 0 0 1-1.562-.33c-.302-.068-.602-.134-.899-.215l-.179-.046c-.148-.036-.291-.075-.437-.114l-.08-.021-.465-.136c-.168-.047-.337-.098-.506-.148l-.059-.016-.439-.135a28.6 28.6 0 0 1-.496-.159l-.404-.135-.297-.104a34.62 34.62 0 0 1-.853-.313l-.268-.106-.222-.087a36.55 36.55 0 0 1-1.274-.54l-.279-.136-.047-.021c-.099-.046-.197-.093-.297-.134a22.259 22.259 0 0 1-.579-.288l-.058-.028-.278-.147a24.079 24.079 0 0 1-1.449-.823l-.259-.16c-.13-.08-.259-.162-.386-.247l-.338-.223-.363-.25-.217-.156a15.765 15.765 0 0 1-.674-.505l-.351-.27c-.14-.112-.279-.227-.416-.343-.116-.095-.23-.195-.343-.294l-.009-.008a18.456 18.456 0 0 1-.36-.324 17.986 17.986 0 0 1-.35-.326l-.013-.013a11.717 11.717 0 0 1-.355-.35c-.116-.118-.235-.235-.348-.356-.113-.119-.229-.241-.341-.366-.111-.124-.214-.237-.319-.359l-.035-.041a19.797 19.797 0 0 1-.93-1.15 24.006 24.006 0 0 1-.597-.831l-.186-.277a36.42 36.42 0 0 1-.722-1.098 26.85 26.85 0 0 1-.511-.808c-.107-.17-.209-.342-.312-.511l-.042-.069c-.098-.166-.195-.329-.288-.493a4.478 4.478 0 0 1-.154-.27c-.05-.094-.107-.189-.16-.283l-.086-.15-.052-.096a22.232 22.232 0 0 1-.297-.548c-.046-.081-.089-.162-.136-.241l-.134-.261-.136-.257a41.99 41.99 0 0 1-.962-2.063l-.107-.255c-.069-.17-.134-.339-.203-.506-.034-.082-.067-.161-.095-.243a25.142 25.142 0 0 1-1.217-4.224 17.233 17.233 0 0 1-.191-1.215c-.013-.08-.022-.16-.031-.24l-.025-.244c-.034-.32-.059-.641-.074-.962 0-.082-.008-.163-.011-.242a12.707 12.707 0 0 1-.012-.479c-.084-6.442 3.175-12.635 10.145-19.602 12.416-12.404 19.643-30.554 19.643-30.554s.195-.761.599-1.858c.056-.152.114-.309.181-.473.235-.614.5-1.217.794-1.805l.059-.113c.25-.5.525-.989.82-1.464.069-.11.136-.218.213-.328.221-.327.455-.647.701-.956.134-.167.28-.333.426-.495.059-.063.117-.126.178-.186.719-.744 1.541-1.35 2.471-1.672l.118-.04c.078-.025.157-.049.237-.072.092-.024.184-.045.279-.065l.043-.009c.196-.039.395-.065.596-.078h.016c.104 0 .21-.011.317-.011.134 0 .259 0 .39.014.136.012.27.027.406.048 1.119.178 2.183.844 3.1 1.872.348.392.662.815.936 1.261.181.289.351.595.513.918.064.134.126.258.187.39.157.341.298.688.422 1.042.294.829.515 1.683.662 2.551.126.762.202 1.53.226 2.301.012.411.012.829 0 1.25a18.015 18.015 0 0 1-1.187 5.717c-.063.167-.134.336-.202.505-.138.34-.29.674-.455 1.002-.122.249-.25.499-.389.748a19.557 19.557 0 0 1-1.068 1.729l-.17.245c-.666.928-1.408 1.8-2.219 2.605a23.29 23.29 0 0 1-2.562 2.216 20.89 20.89 0 0 0-2.546 2.227c-2.266 2.377-2.794 4.476-2.284 6.067.081.25.188.493.318.722.152.262.333.503.538.723l.08.083.082.082c.081.078.167.155.259.23l.09.073c.219.169.451.319.694.452.071.038.134.075.214.112.262.128.532.238.809.327.077.025.154.048.233.072l.098.026.135.036.116.029.127.027.125.025.119.02c.088.015.178.03.269.041l.086.013.156.015.097.011.158.01h.094l.166.009h.521l.149-.009.172-.01.21-.02.196-.022c.045 0 .09-.012.136-.022a7.558 7.558 0 0 0 1.759-.476l.24-.101a7.293 7.293 0 0 0 1.164-.635 7.67 7.67 0 0 0 .975-.758c.072-.065.143-.134.213-.201.034-.033.067-.064.101-.101.066-.067.134-.134.2-.208.483-.53.9-1.115 1.244-1.744a345.037 345.037 0 0 1 9.273-15.851l.444-.71.447-.71c.224-.361.45-.715.674-1.068l.226-.353a187.999 187.999 0 0 1 2.291-3.503l.459-.688a154 154 0 0 1 2.755-3.96l.454-.626a84.598 84.598 0 0 1 3.096-4.012l.426-.51c.07-.084.135-.168.212-.25.14-.166.281-.327.418-.484.069-.08.134-.158.208-.236l.404-.456.202-.221c.203-.219.402-.429.598-.629.136-.136.261-.27.391-.397a15.834 15.834 0 0 1 2.516-2.089l.211-.136c.202-.136.412-.262.626-.377 3.564-2.023 6.514-2.172 8.213-.473 1.029 1.028 1.599 2.733 1.567 5.106 0 .104 0 .21-.008.318v.116c0 .109-.009.218-.018.328 0 .135-.015.269-.028.405-.014.134-.021.237-.035.357 0 .034-.006.068-.012.104a6.014 6.014 0 0 1-.038.319c0 .031 0 .064-.012.098a7.665 7.665 0 0 1-.062.426 6.254 6.254 0 0 1-.063.395l-.039.225a5.945 5.945 0 0 1-.151.633c-.117.39-.26.772-.427 1.143a16.402 16.402 0 0 1-.775 1.488c-.156.268-.318.532-.485.793-.172.27-.353.543-.54.819a43.886 43.886 0 0 1-1.485 2.002l-.235.297a76.61 76.61 0 0 1-2.596 3.068l-.282.316c-.38.424-.766.851-1.161 1.279l-.297.323c-.197.215-.404.431-.603.648a50.46 50.46 0 0 1-.612.653l-.62.652-.628.658-.634.657c-.425.44-.851.881-1.281 1.321-6.114 6.27-12.554 12.519-14.734 16.415a7.952 7.952 0 0 0-.395.782c-.311.709-.441 1.315-.352 1.805.029.161.085.316.168.457.122.212.271.408.445.583.079.079.164.151.253.217.449.32.99.484 1.542.469h.172l.176-.013.177-.02.146-.021c.02-.003.041-.006.06-.012l.135-.026.034-.007.149-.032.053-.013.157-.043c.053-.015.125-.034.188-.055.266-.08.525-.175.78-.284a6.33 6.33 0 0 0 .395-.176c.068-.03.136-.062.199-.095l.202-.1c.482-.25.953-.523 1.411-.815l.201-.136a3.17 3.17 0 0 0 .2-.134l.201-.134.107-.074.289-.204c.27-.185.522-.377.777-.571l.022-.018.406-.314a42.11 42.11 0 0 0 1.554-1.292l.317-.277.028-.028.166-.146c.389-.35.736-.675 1.024-.944l.119-.116c.104-.098.199-.19.285-.268l.169-.167.06-.059.017-.017.176-.176.112-.116.013-.011.053-.048.066-.06.021-.02.056-.051.308-.27.172-.154c.092-.08.181-.161.27-.244l.205-.182c.037-.031.073-.064.111-.097l.216-.188.316-.279.169-.147c.656-.569 1.454-1.258 2.37-2.035l.376-.318.619-.52.635-.529c.829-.689 1.722-1.42 2.665-2.179l.62-.497c.528-.421 1.069-.849 1.618-1.28.221-.174.446-.347.675-.519a151.865 151.865 0 0 1 5.672-4.203l.579-.404c.405-.279.81-.56 1.214-.833l.366-.247c.722-.49 1.455-.968 2.194-1.434l.366-.23.363-.226c.365-.227.727-.448 1.087-.664l.361-.215.72-.419.707-.406.144-.078.559-.308c.234-.127.466-.249.698-.368l.345-.178.336-.169c.118-.055.234-.114.349-.17.96-.473 1.943-.898 2.946-1.274l.618-.217c.185-.062.366-.121.539-.173l.061-.018c.093-.031.187-.058.279-.082l.027-.007c.193-.056.384-.104.573-.15h.013c.535-.128 1.077-.22 1.624-.276.252-.025.504-.039.757-.037h.126c.169 0 .332.01.493.027.074 0 .148.015.221.024h.03c.072.009.144.02.217.036.071.014.143.026.212.042h.023c.071.015.134.034.208.055.383.107.748.273 1.083.49.164.107.318.227.459.361l.041.04c.027.024.052.049.077.075l.074.08a8.256 8.256 0 0 1 1.483 2.156l.058.136a4.988 4.988 0 0 1 .063 3.849c-.14.373-.311.733-.511 1.078a12.342 12.342 0 0 1-1.657 2.189l-.134.143c-.201.211-.409.422-.627.633-.097.095-.198.189-.299.284l-.309.284-.161.144a34.361 34.361 0 0 1-1.938 1.593 63.886 63.886 0 0 1-2.7 1.956c-.553.379-1.111.753-1.673 1.12a151.5 151.5 0 0 1-4.201 2.658c-2.967 1.824-6.255 3.775-9.76 5.896l-.908.55c-.993.607-1.931 1.185-2.814 1.737l-.445.279-.841.54c-.558.357-1.115.718-1.671 1.078l-.448.295c-.218.142-.435.287-.652.432l-.213.135-.651.439-.346.237-.404.28-.375.261c-.629.445-1.214.868-1.752 1.271l-.202.154c-.317.239-.63.484-.939.732-.466.376-.891.735-1.273 1.08l-.187.17a18.18 18.18 0 0 0-.313.293c-.069.068-.134.135-.207.2l-.096.097a16.48 16.48 0 0 0-.63.666l-.1.115a9.508 9.508 0 0 0-.583.741l-.076.107a6.525 6.525 0 0 0-.444.751l-.074.154-.05.112-.032.075-.025.068-.035.092a3.818 3.818 0 0 0-.196.788l-.012.094-.009.087v.475c0 .039 0 .078.01.121l.008.072c0 .039.009.077.015.119.006.039.017.11.029.166v.008a2.9 2.9 0 0 0 .034.156c.014.053.027.113.044.168a4.2 4.2 0 0 0 .103.318c.024.063.046.125.072.187 0 .012.009.025.015.037l.054.123.076.167c.081.173.17.342.267.506l.099.172.103.172a.697.697 0 0 0 .061.082l.034.034.037.035.039.03a.726.726 0 0 0 .291.125c.87.196 2.658-.523 5.034-1.777.135-.073.282-.148.426-.226l.723-.395.353-.196c.252-.135.508-.287.77-.436l.478-.27c3.141-1.808 6.892-4.129 10.769-6.397.364-.212.729-.425 1.093-.635l.733-.468c.85-.487 1.705-.968 2.563-1.443 1.081-.595 2.17-1.173 3.269-1.734l.717-.363c.477-.236.949-.465 1.414-.688a62.466 62.466 0 0 1 2.737-1.22l.505-.205.06-.024c2.676-1.06 5.102-1.714 7.065-1.714.424-.004.849.032 1.266.104h.014c.134.024.256.051.381.082h.023c.321.081.633.197.929.346.414.214.787.499 1.102.843.145.16.273.333.386.517.211.324.377.676.496 1.043.048.144.09.284.134.433a5.932 5.932 0 0 1-.09 3.475Z"/><path fill="#FFD21E" fill-rule="evenodd" d="M412.715 274.796v-.74c0-63.101-51.136-114.253-114.241-114.253-63.104 0-114.259 51.155-114.259 114.253v.247c-.004.165-.004.329 0 .493.007.246.01.492.007.738l.008.542.004.195c0 .09.003.179.006.27.005.143.008.288.008.431l.016.586.024.689.008.227.03.713v.034c.012.279.027.557.041.834l.001.021c.015.284.03.569.049.854.015.262.03.524.049.787l.003.046c.014.225.029.451.046.676l.004.06.05.651.004.042a118.471 118.471 0 0 0 .347 3.634l.006.068.092.797.103.837.075.568.035.267c.08.615.167 1.229.26 1.841l.007.041.088.579c.432 2.757.965 5.498 1.599 8.216l.007.034.048.203.138.58.084-.1c3.317-3.966 8.075-6.152 13.398-6.152 4.267 0 8.644 1.411 13.031 4.193 2.91 1.848 6.127 5.122 9.438 9.239 3.063-4.255 7.357-7.083 12.269-7.855a18.263 18.263 0 0 1 2.831-.223c11.211 0 17.964 9.729 20.515 18.481 1.26 2.956 7.334 16.422 16.495 25.531 13.924 13.911 17.408 28.266 10.517 43.636h.024c.469.053.941.101 1.416.145.282.027.562.054.846.078l.099.009.623.053.573.045c.545.042 1.093.082 1.642.116l.435.026.345.021.215.012.673.035.184.007.708.032.786.03.632.018.106.003c.134.006.268.011.402.011l.145.004c.89.021 1.778.032 2.667.031h.944l.674-.008c.166-.008.33-.008.497-.008h.263l.227-.006c.089-.003.178-.006.269-.006h.269l.53-.013.796-.027.876-.04c.253-.009.503-.022.753-.034l.27-.017.401-.021.235-.013.178-.013.81-.052.808-.059.734-.059.516-.044.567-.051a96.12 96.12 0 0 0 2.834-.297l.644-.077c-6.783-15.305-3.272-29.598 10.594-43.453 9.141-9.133 15.215-22.599 16.482-25.557 2.552-8.751 9.3-18.48 20.514-18.48.948 0 1.897.076 2.833.224 4.907.771 9.201 3.6 12.269 7.854 3.312-4.116 6.528-7.392 9.439-9.24 4.386-2.78 8.767-4.191 13.029-4.191 4.698 0 8.956 1.703 12.172 4.829.058-.255.116-.51.171-.766l.165-.763a134.083 134.083 0 0 0 .467-2.32 81.5 81.5 0 0 0 .285-1.553l.047-.281c.029-.165.056-.331.087-.499.052-.259.094-.518.136-.781l.017-.099.107-.683.105-.692v-.006c.077-.511.149-1.022.217-1.533l.017-.127.095-.721.077-.615.135-1.212.053-.487.014-.132c.028-.263.056-.525.08-.787v-.022c.019-.208.04-.417.058-.627.108-1.188.198-2.382.27-3.58.014-.196.024-.394.036-.591v-.009l.04-.741.009-.166c.024-.5.045-1.001.062-1.501v-.018l.007-.196c.008-.165.014-.33.014-.496l.003-.067c.006-.155.012-.315.012-.473l.004-.136c.005-.158.009-.315.009-.473l.003-.134c.005-.201.009-.403.009-.603v-.738Zm-142.58 114.138c9.049-13.269 8.407-23.228-4.007-35.636-12.417-12.41-19.643-30.556-19.643-30.556s-2.698-10.54-8.849-9.572-10.663 16.719 2.216 26.36c12.879 9.641-2.563 16.178-7.52 7.131-4.957-9.049-18.491-32.307-25.507-36.756-7.017-4.449-11.951-1.956-10.298 7.214.822 4.551 8.463 12.32 15.601 19.578 7.243 7.363 13.969 14.202 12.53 16.622-2.854 4.805-12.905-5.646-12.905-5.646s-31.473-28.642-38.324-21.178c-6.317 6.879 3.424 12.727 18.434 21.742 1.275.765 2.59 1.555 3.936 2.37 17.174 10.396 18.51 13.139 16.072 17.072-.9 1.453-6.649-1.998-13.72-6.242-12.053-7.238-27.947-16.78-30.192-8.239-1.942 7.392 9.752 11.921 20.356 16.029 8.835 3.423 16.916 6.553 15.726 10.801-1.231 4.406-7.909.731-15.207-3.285-8.194-4.509-17.172-9.448-20.11-3.875-5.553 10.539 38.309 22.945 38.67 23.037 14.172 3.676 50.163 11.464 62.741-6.971Zm58.293 0c-9.049-13.269-8.407-23.228 4.009-35.636 12.415-12.41 19.641-30.556 19.641-30.556s2.697-10.54 8.848-9.572c6.152.968 10.664 16.719-2.214 26.36-12.88 9.641 2.561 16.178 7.518 7.131 4.959-9.049 18.484-32.307 25.501-36.756 7.016-4.449 11.954-1.956 10.298 7.214-.82 4.551-8.462 12.32-15.601 19.58-7.243 7.363-13.968 14.2-12.531 16.62 2.854 4.805 12.913-5.652 12.913-5.652s31.472-28.641 38.325-21.177c6.316 6.878-3.425 12.728-18.437 21.742-1.313.789-2.624 1.579-3.935 2.37-17.173 10.397-18.509 13.139-16.073 17.071.902 1.455 6.651-1.998 13.72-6.242 12.055-7.236 27.949-16.78 30.194-8.237 1.943 7.392-9.752 11.921-20.357 16.029-8.834 3.422-16.915 6.552-15.727 10.801 1.23 4.403 7.906.729 15.203-3.287 8.194-4.509 17.173-9.451 20.11-3.873 5.554 10.544-38.315 22.939-38.669 23.029-14.172 3.688-50.163 11.476-62.736-6.959Z" clip-rule="evenodd"/><path fill="#32343D" fill-rule="evenodd" d="M335.581 242.957c1.782.63 3.107 2.548 4.367 4.374 1.704 2.466 3.29 4.763 5.723 3.469a16.441 16.441 0 0 0 8.577-16.693 16.43 16.43 0 0 0-7.131-11.472 16.436 16.436 0 0 0-24.338 7.325 16.442 16.442 0 0 0 .658 14.042c1.127 2.121 3.63 1.12 6.271.063 2.07-.827 4.228-1.69 5.873-1.108Zm-77.455 0c-1.782.63-3.108 2.55-4.368 4.374-1.704 2.468-3.291 4.763-5.723 3.469a16.437 16.437 0 0 1 12.458-30.255 16.447 16.447 0 0 1 11.619 14.093 16.438 16.438 0 0 1-1.841 9.364c-1.129 2.121-3.632 1.12-6.273.065-2.072-.829-4.226-1.692-5.872-1.11Zm65.472 70.484c12.277-9.672 16.786-25.463 16.786-35.19 0-7.689-5.173-5.269-13.454-1.168l-.468.23c-7.601 3.765-17.72 8.778-28.829 8.778-11.109 0-21.229-5.013-28.829-8.779-8.55-4.235-13.912-6.892-13.912.941 0 10.034 4.797 26.511 17.965 36.083a28.589 28.589 0 0 1 17.451-14.753c1.314-.392 2.668 1.871 4.054 4.188 1.337 2.234 2.704 4.52 4.095 4.52 1.482 0 2.936-2.253 4.358-4.451 1.485-2.299 2.934-4.538 4.335-4.09a28.595 28.595 0 0 1 16.448 13.691Z" clip-rule="evenodd"/><path fill="#FF323D" d="M323.595 313.44c-6.394 5.038-14.893 8.417-25.96 8.417-10.399 0-18.531-2.982-24.779-7.522a28.605 28.605 0 0 1 17.451-14.753c2.581-.771 5.318 8.708 8.149 8.708 3.031 0 5.951-9.417 8.693-8.541a28.608 28.608 0 0 1 16.446 13.691Z"/><path fill="#FFAD03" fill-rule="evenodd" d="M228.768 256.637a10.67 10.67 0 0 1-10.025.987 10.645 10.645 0 0 1-5.785-5.784 10.672 10.672 0 0 1 .99-10.026 10.684 10.684 0 0 1 19.514 6.987 10.688 10.688 0 0 1-4.694 7.836Zm152.895 0a10.678 10.678 0 0 1-10.028.987 10.657 10.657 0 0 1-5.784-5.784 10.707 10.707 0 0 1-.76-5.137 10.721 10.721 0 0 1 5.142-8.119 10.686 10.686 0 0 1 6.803-1.44 10.67 10.67 0 0 1 6.247 3.054 10.666 10.666 0 0 1 2.316 11.645 10.687 10.687 0 0 1-3.936 4.794Z" clip-rule="evenodd"/></svg>